# xmcd CD database file
#
# Track frame offsets:
#	150
#	33422
#	41481
#	83927
#	105720
#	129554
#	140659
#	149246
#	190910
#	207985
#	216856
#	231339
#	256766
#	290786
#	299882
#
# Disc length: 4581 seconds
#
# Revision: 0
# Processed by: cddbd v1.5.2PL0 Copyright (c) Steve Scherf et al.
# Submitted via: CDex 1.70beta2
#
DISCID=0011e30f
DTITLE=Georg Breinschmid and Friends - Wien bleibt Krk
DYEAR=2011
DGENRE=Jazz
TTITLE0=Wien bleibt Krk
TTITLE1=Interlude - Klanes Wiener Basssolo
TTITLE2=Stammersdorfer Ausdruckstänze
TTITLE3=Musette pour Elisabeth
TTITLE4=A klanes Brabitschek
TTITLE5=I pee a hedgehog with long-lasting waves
TTITLE6=Interlude - Mussorgsky, mei oida Freind
TTITLE7=Balkandrom
TTITLE8=Fussball-Aversions-Wienerlied
TTITLE9=Interlude - An uns zwaa kummt kana foabei
TTITLE10=Skubeks Delight
TTITLE11=Komisches Wienerlied
TTITLE12=Florentiner Marsch
TTITLE13=Interlude - Midnight in Heanois
TTITLE14=For the lost Daughters and Sons of Vienna
EXTD=YEAR: 2011
EXTT0=
EXTT1=
EXTT2=
EXTT3=
EXTT4=
EXTT5=
EXTT6=
EXTT7=
EXTT8=
EXTT9=
EXTT10=
EXTT11=
EXTT12=
EXTT13=
EXTT14=
PLAYORDER=
